<svg width="24" height="24" viewBox="0 0 24 24" fill="none" xmlns="http://www.w3.org/2000/svg">
<path d="M3 10.6806V20C3 20.5523 3.44772 21 4 21H8.5C9.05228 21 9.5 20.5523 9.5 20V15C9.5 14.4477 9.94772 14 10.5 14H13.5C14.0523 14 14.5 14.4477 14.5 15V20C14.5 20.5523 14.9477 21 15.5 21H20C20.5523 21 21 20.5523 21 20V10.6806C21 10.3768 20.8619 10.0895 20.6247 9.89976L13.2494 3.99951C12.519 3.41516 11.481 3.41516 10.7506 3.99951L3.3753 9.89976C3.13809 10.0895 3 10.3768 3 10.6806Z" stroke="white" stroke-width="1.5"/>
</svg>
